<?xml version="1.0" encoding="UTF-8"?>
<svg width="22px" height="22px" viewBox="0 0 22 22" version="1.1" xmlns="http://www.w3.org/2000/svg" xmlns:xlink="http://www.w3.org/1999/xlink">
    <!-- Generator: Sketch 55.2 (78181) - https://sketchapp.com -->
    <title>user</title>
    <desc>Created with Sketch.</desc>
    <g id="Page-1" stroke="none" stroke-width="1" fill="none" fill-rule="evenodd">
        <g id="Homepage" transform="translate(-1256.000000, -81.000000)" fill-rule="nonzero">
            <g id="Header" transform="translate(154.000000, -43.000000)">
                <g id="Top-bar" transform="translate(0.000000, 122.000000)">
                    <g id="user" transform="translate(1102.000000, 2.000000)">
                        <path d="M7.72615094,17.248 L4.444,19.0383019 C4.25139623,19.1433208 4.07830189,19.2724151 3.91724528,19.4131321 C5.83083019,21.0266038 8.3010566,22 11,22 C13.6790189,22 16.1334717,21.0411321 18.0416604,19.4496604 C17.8656604,19.3010566 17.674717,19.1673962 17.4630189,19.0619623 L13.9484151,17.3048679 C13.4943019,17.0778113 13.2074717,16.6137358 13.2074717,16.1060755 L13.2074717,14.7271321 C13.3062642,14.6146415 13.4191698,14.4701887 13.5399623,14.2995849 C14.0189811,13.6229811 14.3813585,12.878717 14.6324906,12.0979245 C15.083283,11.9588679 15.4153585,11.5425283 15.4153585,11.0477358 L15.4153585,9.57581132 C15.4153585,9.25203774 15.2713208,8.96271698 15.0475849,8.76015094 L15.0475849,6.63237736 C15.0475849,6.63237736 15.4846792,3.32116981 11.0004151,3.32116981 C6.51615094,3.32116981 6.95324528,6.63237736 6.95324528,6.63237736 L6.95324528,8.76015094 C6.72909434,8.96271698 6.5854717,9.25203774 6.5854717,9.57581132 L6.5854717,11.0477358 C6.5854717,11.435434 6.78928302,11.7766415 7.09437736,11.9738113 C7.46215094,13.5748302 8.42516981,14.7271321 8.42516981,14.7271321 L8.42516981,16.0720377 C8.42475472,16.5618491 8.15660377,17.0130566 7.72615094,17.248 Z" id="Path" fill="#E7ECED"></path>
                        <path d="M11.1880377,0.00166037736 C5.11396226,-0.102113208 0.105433962,4.73788679 0.00166037736,10.8119623 C-0.0572830189,14.256 1.47773585,17.3513585 3.92181132,19.4098113 C4.08162264,19.2703396 4.2530566,19.1424906 4.44358491,19.038717 L7.72573585,17.2484151 C8.15618868,17.0134717 8.42433962,16.5622642 8.42433962,16.0716226 L8.42433962,14.726717 C8.42433962,14.726717 7.46090566,13.5744151 7.09354717,11.9733962 C6.78886792,11.7762264 6.58464151,11.435434 6.58464151,11.0473208 L6.58464151,9.57539623 C6.58464151,9.25162264 6.72867925,8.96230189 6.95241509,8.75973585 L6.95241509,6.63196226 C6.95241509,6.63196226 6.51532075,3.32075472 10.9995849,3.32075472 C15.4838491,3.32075472 15.0467547,6.63196226 15.0467547,6.63196226 L15.0467547,8.75973585 C15.2709057,8.96230189 15.4145283,9.25162264 15.4145283,9.57539623 L15.4145283,11.0473208 C15.4145283,11.5421132 15.0824528,11.9584528 14.6316604,12.0975094 C14.3805283,12.8783019 14.0181509,13.622566 13.5391321,14.2991698 C13.4183396,14.4697736 13.305434,14.6142264 13.2066415,14.726717 L13.2066415,16.1056604 C13.2066415,16.6133208 13.4934717,17.0778113 13.9475849,17.3044528 L17.4621887,19.0615472 C17.6730566,19.1669811 17.8635849,19.3002264 18.0391698,19.4484151 C20.4093585,17.4717358 21.9406415,14.5162642 21.9975094,11.1880377 C22.1021132,5.11396226 17.2625283,0.105433962 11.1880377,0.00166037736 Z" id="Path" fill="#556080"></path>
                    </g>
                </g>
            </g>
        </g>
    </g>
</svg>